<svg version="1.1" xmlns="http://www.w3.org/2000/svg" x="0px" y="0px" viewBox="0 0 3000 3000" xml:space="preserve">
<style>
	.st0{display:none;}
	.st1{display:inline;fill:#000A1A;}
	.st2{fill:#FFFCF9;}
	.st3{fill:#AD2121;}
	.st4{fill:#F30B00;}
	.st5{opacity:0.61;fill:#2D2623;}
	.st6{fill:url(#SVGID_1_);}
	.st7{fill:url(#SVGID_2_);}
	.st8{fill:#FFCFB9;}
	.st9{opacity:0.24;fill:#070605;}
	.st10{opacity:0.27;fill:#140F0C;}
	.st11{fill:#762E00;}
	.st12{fill:#562408;}
	.st13{opacity:0.39;fill:#1C1917;}
	.st14{fill:#FFFFFF;}
	.st15{opacity:0.48;fill:#26181C;}
	.st16{fill:#D81D1D;}
	.st17{opacity:0.43;fill:none;stroke:#FFFFFF;stroke-width:8.9088;stroke-linecap:round;stroke-miterlimit:10;}
	.st18{opacity:0.43;fill:none;stroke:#282526;stroke-width:8.9088;stroke-linecap:round;stroke-miterlimit:10;}
	.st19{fill:#070605;}
	.st20{fill:none;stroke:#995F5B;stroke-width:17.0613;stroke-linecap:round;stroke-miterlimit:10;}
	.st21{display:inline;opacity:0.16;}
</style>
    <switch>
	<g>
		<g id="Layer_1" class="st0">
			<rect class="st1" width="3000" height="3000"/>
		</g>
        <g id="Layer_3">
			<path class="st2" d="M2390,1929.3c-55.2,349.1-297.8,670-599.8,801.3c-9.6,4.2-19.2,8.1-28.9,11.9
				c-83.8,32.6-171.8,50.6-261.3,50.6c-86.4,0-171.5-16.8-252.7-47.3c-15.6-5.9-31.1-12.3-46.4-19.1
				C903,2593,664.7,2274.9,610,1929.3c-70.7-447.1,153.4-669.2,429.9-672c5.4-0.1,10.9,0,16.3,0.1c60.1,1.3,114.7,4.4,163.4,8.6
				c10,0.9,19.7,1.8,29.2,2.7c35.2,3.5,66.9,7.4,95,11.5c101.7,14.8,156.1,31.1,156.1,31.1s53.3-16,153.1-30.7
				c27.6-4.1,58.8-8,93.3-11.5c21.3-2.1,43.8-4.1,67.6-5.8c39.8-2.9,83.1-5,129.7-6c4.5-0.1,8.9-0.1,13.3-0.1
				C2235,1258.4,2461,1480.5,2390,1929.3z"/>
		</g>
        <g id="Layer_4">
			<path class="st3" d="M2023,550.4v327.2h-49V578.9c0-28.6-5.5-55.8-15.3-80.5c-27.8-69.7-90.6-118.5-163.2-118.5h-594.1
				c-98.2,0-178.5,89.6-178.5,199v298.7h-49V550.4c0-127.8,92.9-231.4,207.6-231.4h633.9C1930.1,319,2023,422.6,2023,550.4z"/>
            <path class="st4" d="M1321,2169c-2.3,191.2-67.2,389.3-120.1,557.6C903,2593,664.7,2274.9,610,1929.3
				c-72.1-455.9,162.3-677.9,446.3-671.9c60.1,1.3,114.7,4.4,163.4,8.6C1279.1,1662.1,1323.8,1943.1,1321,2169z"/>
            <path class="st5" d="M2390,1929.3c-55.2,349.1-297.8,670-599.8,801.3c-9.6,4.2-19.2,8.1-28.9,11.9
				c-54-172-112.7-367.8-115.1-557.4c-2.8-233.1,40.6-519.8,100.2-915.8c21.3-2.1,43.8-4.1,67.6-5.8c39.8-2.9,83.1-5,129.7-6
				c4.5-0.1,8.9-0.1,13.3-0.1C2235,1258.4,2461,1480.5,2390,1929.3z"/>
            <path class="st5" d="M1353.8,2215.8c-2.2,179.6-55,364.8-106.5,530c-15.6-5.9-31.1-12.3-46.4-19.1
				C903,2593,664.7,2274.9,610,1929.3c-70.7-447.1,153.4-669.2,429.9-672c5.4-0.1,10.9,0,16.3,0.1c60.1,1.3,114.7,4.4,163.4,8.6
				c10,0.9,19.7,1.8,29.2,2.7C1310.8,1680.9,1356.7,1976.6,1353.8,2215.8z"/>
            <linearGradient id="SVGID_1_" gradientUnits="userSpaceOnUse" x1="2041.0291" y1="1257.2915" x2="2041.0291"
                            y2="2726.6299">
				<stop offset="0" style="stop-color:#F91C27"/>
                <stop offset="1" style="stop-color:#A51C20"/>
			</linearGradient>
            <path class="st6" d="M1679,2169c2.3,191.2,67.2,389.3,120.1,557.6c297.9-133.6,536.2-451.7,590.9-797.3
				c72.1-455.9-162.3-677.9-446.3-671.9c-60.1,1.3-114.7,4.4-163.4,8.6C1720.9,1662.1,1676.2,1943.1,1679,2169z"/>
            <linearGradient id="SVGID_2_" gradientUnits="userSpaceOnUse" x1="958.9709" y1="1257.2915" x2="958.9709"
                            y2="2726.6299">
				<stop offset="0" style="stop-color:#F91C27"/>
                <stop offset="1" style="stop-color:#A51C20"/>
			</linearGradient>
            <path class="st7" d="M1321,2169c-2.3,191.2-67.2,389.3-120.1,557.6C903,2593,664.7,2274.9,610,1929.3
				c-72.1-455.9,162.3-677.9,446.3-671.9c60.1,1.3,114.7,4.4,163.4,8.6C1279.1,1662.1,1323.8,1943.1,1321,2169z"/>
            <path class="st8"
                  d="M1653.1,1280.7l-154.4,154.4l-154.8-154.8c101.7,14.8,156.1,31.1,156.1,31.1S1553.3,1295.4,1653.1,1280.7z"
            />
            <path class="st5" d="M1957.1,1257.3c-28.6,60.6-90.4,102.8-161.6,102.8h-594.1c-71.1,0-132.9-42.2-161.6-102.8
				c5.4-0.1,10.9,0,16.3,0.1c60.1,1.3,114.7,4.4,163.4,8.6c47,4,88.6,9,124.3,14.2c101.7,14.8,156.1,31.1,156.1,31.1
				s53.3-16,153.1-30.7c44.6-6.6,98.4-12.8,160.9-17.3c39.8-2.9,83.1-5,129.7-6C1948.2,1257.3,1952.7,1257.3,1957.1,1257.3z"/>
            <path class="st8" d="M1974,552.1v594.1c0,98.2-80.3,178.5-178.5,178.5h-594.1c-98.2,0-178.5-80.3-178.5-178.5V552.1
				c0-98.2,80.3-178.5,178.5-178.5h594.1c30.7,0,59.7,7.9,85,21.7c34.5,18.8,62.1,48.6,78.2,84.6c2.5,5.6,4.7,11.3,6.6,17.2
				C1971,514.4,1974,532.9,1974,552.1z"/>
            <path class="st9" d="M1990.5,567.4v310.2H1974V578.9c0-28.6-5.5-55.8-15.3-80.5c-27.8-69.7-90.6-118.5-163.2-118.5h-594.1
				c-98.2,0-178.5,89.6-178.5,199v298.7h-16.4V567.4c0-113.2,83.1-205.9,184.7-205.9h614.6c31.8,0,61.7,9.1,87.9,25
				c35.7,21.7,64.3,56.1,80.9,97.6c2.6,6.5,4.9,13.1,6.8,19.8C1987.3,524,1990.5,545.3,1990.5,567.4z"/>
            <path class="st10" d="M1965.3,497.1c-216.3,31.7-462,92.9-577.7,162.9c-89.5,54.1-214.8,78.8-364.7,84.1V568.4
				c0-101.1,82.7-183.9,183.9-183.9h611.9c21.7,0,42.5,3.8,61.8,10.8c34.5,18.8,62.1,48.6,78.2,84.6
				C1961.2,485.5,1963.4,491.2,1965.3,497.1z"/>
            <path class="st11" d="M1958.7,479.9c-214.8,29.8-465.6,90.9-581.7,161.1c-86.9,52.5-208.5,76.5-354,81.7V552.1
				c0-98.2,80.3-178.5,178.5-178.5h594.1C1868.1,373.6,1930.8,417.4,1958.7,479.9z"/>
            <circle class="st2" cx="1274.8" cy="881.8" r="84"/>
            <circle class="st12" cx="1283.7" cy="870.8" r="25.5"/>
            <circle class="st2" cx="1737.1" cy="881.8" r="84"/>
            <path class="st13" d="M1345.3,745l-180.4,11.3c-6.6,0.4-11.6,6.1-11.2,12.7l0.7,11.7c0.4,6.6,6.1,11.6,12.7,11.2l180.4-11.3
				c6.6-0.4,11.6-6.1,11.2-12.7l-0.7-11.7C1357.6,749.7,1351.9,744.6,1345.3,745z"/>
            <circle class="st12" cx="1746.1" cy="870.8" r="25.5"/>
            <path class="st11" d="M1331.1,730.9l-180.4,11.3c-6.6,0.4-11.6,6.1-11.2,12.7l0.7,11.7c0.4,6.6,6.1,11.6,12.7,11.2l180.4-11.3
				c6.6-0.4,11.6-6.1,11.2-12.7l-0.7-11.7C1343.4,735.6,1337.7,730.5,1331.1,730.9z"/>
            <path class="st13" d="M1672.2,699.6l180.7,1.2c6.6,0,12,5.5,11.9,12.1l-0.1,11.7c0,6.6-5.5,12-12.1,11.9l-180.7-1.2
				c-6.6,0-12-5.5-11.9-12.1l0.1-11.7C1660.2,704.9,1665.6,699.6,1672.2,699.6z"/>
            <path class="st11" d="M1655.6,684.3l180.7,1.2c6.6,0,12,5.5,11.9,12.1l-0.1,11.7c0,6.6-5.5,12-12.1,11.9l-180.7-1.2
				c-6.6,0-12-5.5-11.9-12.1l0.1-11.7C1643.6,689.6,1649,684.3,1655.6,684.3z"/>
            <g>
				<path class="st14" d="M925,893.9v103.9c-2.2,0-4.2-0.5-6.2-1.3c-7.3-3.2-12.5-11.8-12.5-21.9V917c0-10.1,5.2-18.7,12.5-21.9
					C920.7,894.3,922.8,893.9,925,893.9z"/>
                <path class="st15" d="M1023,841.2v164.7c0,33.6-21.9,60.8-49,60.8s-49-27.2-49-60.8v-8c-2.2,0-4.2-0.5-6.2-1.3V895.2
					c1.9-0.8,4-1.3,6.2-1.3v-8c0-33.6,21.9-60.8,49-60.8v-15.2h6.2C998.5,809.9,1014.6,822.5,1023,841.2z"/>
                <path class="st16" d="M1023,885.9v120c0,33.6-21.9,60.8-49,60.8s-49-27.2-49-60.8v-120c0-33.6,21.9-60.8,49-60.8
					c13.5,0,25.8,6.8,34.6,17.8C1017.5,853.9,1023,869.1,1023,885.9z"/>
                <path class="st17" d="M937.7,893.9L937.7,893.9c0-26.9,17.6-48.8,39.3-48.8h0"/>
                <path class="st18" d="M1010.2,1001.4L1010.2,1001.4c0,26.9-17.6,48.8-39.3,48.8h0"/>
			</g>
            <g>
				<path class="st14"
                      d="M2072,893.9L2072,893.9c10.3,0,18.7,8.4,18.7,18.7v66.6c0,10.3-8.4,18.7-18.7,18.7l0,0V893.9z"/>
                <path class="st15" d="M1974,841.2v164.7c0,33.6,21.9,60.8,49,60.8s49-27.2,49-60.8v-8c2.2,0,4.2-0.5,6.2-1.3V895.2
					c-1.9-0.8-4-1.3-6.2-1.3v-8c0-33.6-21.9-60.8-49-60.8v-15.2h-6.2C1998.5,809.9,1982.4,822.5,1974,841.2z"/>
                <path class="st16" d="M2023,1066.6L2023,1066.6c-27.1,0-49-21.9-49-49V874.1c0-27.1,21.9-49,49-49l0,0c27.1,0,49,21.9,49,49
					v143.5C2072,1044.7,2050.1,1066.6,2023,1066.6z"/>
                <path class="st17" d="M1986.8,893.9L1986.8,893.9c0-26.9,17.6-48.8,39.3-48.8h0"/>
                <path class="st18" d="M2059.3,1001.4L2059.3,1001.4c0,26.9-17.6,48.8-39.3,48.8h0"/>
			</g>
            <path class="st19" d="M1146.1,569.5"/>
            <path class="st20" d="M1360.3,1171.8c0,0,203.2,33.7,318.6-51.9"/>
		</g>
        <g id="Layer_5" class="st0">
			<g class="st21">
				<path class="st2" d="M109.5,2025.1v-718.8h343.4c161.7,0,290.5,37.9,290.5,180.7c0,73.9-47.9,127.8-93.8,156.7
					c77.9,20,119.8,86.9,119.8,164.7c0,160.7-122.8,216.6-309.5,216.6H109.5z M345.1,1474.1v119.8h97.8c46.9,0,80.9-21,80.9-62.9
					c0-55.9-45.9-56.9-95.8-56.9H345.1z M345.1,1724.6v132.8h102.8c57.9,0,101.8-12,101.8-65.9c0-62.9-54.9-66.9-129.8-66.9H345.1z"
                />
                <path class="st2" d="M866.1,1502h188.7v105.8h2c28.9-81.9,79.9-120.8,160.7-120.8c9,0,18,2,27,3v207.6c-14-2-29-6-42.9-6
					c-84.9,0-127.8,39.9-127.8,152.7v180.7H866.1V1502z"/>
                <path class="st2"
                      d="M1319.3,1287.4h207.6v147.7h-207.6V1287.4z M1319.3,2025.1V1502h207.6v523.1H1319.3z"/>
                <path class="st2" d="M1996.1,1701.7c-1-23-9-40.9-22-53.9c-13-14-30.9-21-53.9-21c-77.9,0-90.8,80.9-90.8,142.8
					c0,78.9,29.9,130.8,90.8,130.8c53.9,0,74.9-36.9,80.9-77.9h209.6c-9,78.9-44.9,133.8-97.8,168.7
					c-51.9,33.9-119.8,48.9-192.7,48.9c-168.7,0-298.5-94.8-298.5-271.5c0-178.7,125.8-281.5,298.5-281.5
					c139.8,0,271.5,59.9,286.5,214.6H1996.1z"/>
                <path class="st2" d="M2494.1,1810.5c0,61.9,47.9,102.8,102.8,102.8c32.9,0,62.9-15,77.9-45.9h198.7
					c-35.9,129.8-167.7,172.7-289.5,172.7c-167.7,0-297.5-95.8-297.5-271.5c0-171.7,128.8-281.5,296.5-281.5
					c193.7,0,310.5,133.8,307.5,323.4H2494.1z M2682.8,1704.7c0-47.9-42.9-90.8-91.8-90.8c-61.9,0-96.8,34.9-96.8,90.8H2682.8z"/>
			</g>
		</g>
	</g>
</switch>
</svg>
