<svg version="1.1" xmlns="http://www.w3.org/2000/svg" viewBox="0 0 12500 12500" xml:space="preserve">
    <g>
        <path fill="#fffcf9" d="M9962.5,8038.75c-230,1454.58 -1240.83,2791.67 -2499.17,3338.75c-40,17.5 -80,33.75 -120.416,49.583c-349.167,135.834 -715.834,210.834 -1088.75,210.834c-360,0 -714.584,-70 -1052.92,-197.084c-65,-24.583 -129.583,-51.25 -193.333,-79.583c-1241.25,-557.083 -2234.17,-1882.5 -2462.08,-3322.5c-294.583,-1862.92 639.167,-2788.33 1791.25,-2800c22.5,-0.417 45.417,0 67.917,0.417c250.417,5.416 477.917,18.333 680.833,35.833c41.667,3.75 82.084,7.5 121.667,11.25c146.667,14.583 278.75,30.833 395.833,47.917c423.75,61.666 650.417,129.583 650.417,129.583c0,0 222.083,-66.667 637.917,-127.917c115,-17.083 245,-33.333 388.75,-47.916c88.75,-8.75 182.5,-17.084 281.666,-24.167c165.834,-12.083 346.25,-20.833 540.417,-25c18.75,-0.417 37.083,-0.417 55.417,-0.417c1158.75,5 2100.42,930.417 1804.58,2800.42Z"/>
        <path fill="#f30b00" d="M5504.17,9037.5c-9.584,796.667 -280,1622.08 -500.417,2323.33c-1241.25,-556.666 -2234.17,-1882.08 -2462.08,-3322.08c-300.417,-1899.58 676.25,-2824.58 1859.58,-2799.58c250.417,5.416 477.917,18.333 680.833,35.833c247.5,1650.42 433.75,2821.25 422.084,3762.5Z"/>
        <path fill="#7f7976" d="M9958.33,8038.75c-230,1454.58 -1240.83,2791.67 -2499.17,3338.75c-40,17.5 -80,33.75 -120.417,49.583c-225,-716.666 -469.583,-1532.5 -479.583,-2322.5c-11.667,-971.25 169.166,-2165.83 417.5,-3815.83c88.75,-8.75 182.5,-17.083 281.666,-24.167c165.834,-12.083 346.25,-20.833 540.417,-25c18.75,-0.416 37.083,-0.416 55.417,-0.416c1158.33,4.166 2100,929.583 1804.17,2799.58Z"/>
        <path fill="#7f7976" d="M5640.83,9232.5c-9.166,748.333 -229.166,1520 -443.75,2208.33c-65,-24.583 -129.583,-51.25 -193.333,-79.583c-1241.25,-557.083 -2234.17,-1882.5 -2462.08,-3322.5c-294.584,-1862.92 639.166,-2788.33 1791.25,-2800c22.5,-0.417 45.416,0 67.916,0.417c250.417,5.416 477.917,18.333 680.834,35.833c41.666,3.75 82.083,7.5 121.666,11.25c258.334,1717.5 449.584,2949.58 437.5,3946.25Z"/>
        <path fill="url(#linear1)" d="M6995.83,9037.5c9.584,796.667 280,1622.08 500.417,2323.33c1241.25,-556.666 2234.17,-1882.08 2462.08,-3322.08c300.417,-1899.58 -676.25,-2824.58 -1859.58,-2799.58c-250.417,5.416 -477.917,18.333 -680.833,35.833c-247.5,1650.42 -433.75,2821.25 -422.084,3762.5Z"/>
        <path fill="url(#linear2)" d="M5504.17,9037.5c-9.584,796.667 -280,1622.08 -500.417,2323.33c-1241.25,-556.666 -2234.17,-1882.08 -2462.08,-3322.08c-300.417,-1899.58 676.25,-2824.58 1859.58,-2799.58c250.417,5.416 477.917,18.333 680.833,35.833c247.5,1650.42 433.75,2821.25 422.084,3762.5Z"/>
        <path fill="#ffcfb9" d="M6887.92,5336.25l-643.334,643.333l-645,-645c423.75,61.667 650.417,129.584 650.417,129.584c0,0 222.083,-66.667 637.917,-127.917Z"/>
    </g>
    <g>
        <path fill="#2d2623" opacity="0.61" d="M8154.58,5238.75c-119.166,252.5 -376.666,428.333 -673.333,428.333l-2475.42,0c-296.25,0 -553.75,-175.833 -673.333,-428.333c22.5,-0.417 45.417,0 67.917,0.417c250.416,5.416 477.916,18.333 680.833,35.833c195.833,16.667 369.167,37.5 517.917,59.167c423.75,61.666 650.416,129.583 650.416,129.583c0,0 222.084,-66.667 637.917,-127.917c185.833,-27.5 410,-53.333 670.417,-72.083c165.833,-12.083 346.25,-20.833 540.416,-25l56.25,0Z"/>
        <path fill="#ffcfb9" d="M8225,2300.42l0,2475.42c0,409.167 -334.583,743.75 -743.75,743.75l-2475.42,0c-409.166,0 -743.75,-334.583 -743.75,-743.75l0,-2475.42c0,-409.167 334.584,-743.75 743.75,-743.75l2475.42,0c127.917,0 248.75,32.916 354.167,90.416c143.75,78.334 258.75,202.5 325.833,352.5c10.417,23.334 19.583,47.084 27.5,71.667c23.75,72.083 36.25,149.167 36.25,229.167Z"/>
        <path fill="#140f0c" opacity="0.27" d="M8188.75,2071.25c-901.25,132.083 -1925,387.083 -2407.08,678.75c-372.917,225.417 -895,328.333 -1519.58,350.417l0,-732.084c0,-421.25 344.584,-766.25 766.25,-766.25l2549.58,0c90.416,0 177.083,15.834 257.5,45c143.75,78.334 258.75,202.5 325.833,352.5c10.417,23.334 19.583,47.084 27.5,71.667Z"/>
        <path fill="#762e00" d="M8161.25,2003.75c-895,124.167 -1940,378.75 -2423.75,671.25c-362.083,218.75 -868.75,318.75 -1475,340.417l0,-710.834c0,-409.166 334.583,-743.75 743.75,-743.75l2475.42,0c302.083,0 563.333,182.5 679.583,442.917Z"/>
        <g>
            <circle fill="#fffcf9" cx="7237.92" cy="3674.17" r="350"/>
            <circle fill="#562408" cx="7275.42" cy="3628.33" r="106.25"/>
        </g>
        <g>
            <circle fill="#fffcf9" cx="5311.67" cy="3674.17" r="350"/>
            <circle fill="#562408" cx="5348.75" cy="3628.33" r="106.25"/>
        </g>
        <path fill="#1c1917" opacity="0.41" d="M5605.42,3104.17l-751.667,47.083c-27.5,1.667 -48.333,25.417 -46.667,52.917l2.917,48.75c1.667,27.5 25.417,48.333 52.917,46.666l751.666,-47.083c27.5,-1.667 48.334,-25.417 46.667,-52.917l-2.917,-48.75c-1.666,-27.083 -25.416,-48.333 -52.916,-46.666Z"/>
        <path fill="#762e00" d="M5546.25,3045.42l-751.667,47.083c-27.5,1.667 -48.333,25.417 -46.666,52.917l2.916,48.75c1.667,27.5 25.417,48.333 52.917,46.666l751.667,-47.083c27.5,-1.667 48.333,-25.417 46.666,-52.917l-2.916,-48.75c-1.667,-27.083 -25.417,-48.333 -52.917,-46.666Z"/>
        <path fill="#1c1917" opacity="0.41" d="M6967.5,2915l752.917,5c27.5,0 50,22.917 49.583,50.417l-0.417,48.75c0,27.5 -22.916,50 -50.416,49.583l-752.917,-5c-27.5,0 -50,-22.917 -49.583,-50.417l0.416,-48.75c0.417,-27.5 22.917,-49.583 50.417,-49.583Z"/>
        <path fill="#762e00" d="M6898.33,2851.25l752.917,5c27.5,0 50,22.917 49.583,50.417l-0.416,48.75c0,27.5 -22.917,50 -50.417,49.583l-752.917,-5c-27.5,0 -50,-22.917 -49.583,-50.417l0.417,-48.75c0.416,-27.5 22.916,-49.583 50.416,-49.583Z"/>
        <path d="M5667.92,4882.5c0,0 846.666,140.417 1327.5,-216.25"
              style="fill:none;fill-rule:nonzero;stroke:#995f5b;stroke-width:71.09px;stroke-linecap: round;"/>
        <g>
            <path fill="#ad2121" d="M8429.17,2293.33l0,1363.33l-204.167,0l0,-1244.58c0,-119.166 -22.917,-232.5 -63.75,-335.416c-115.833,-290.417 -377.5,-493.75 -680,-493.75l-2475.42,0c-409.166,0 -743.75,373.333 -743.75,829.166l0,1244.58l-204.166,0l0,-1363.33c0,-532.5 387.083,-964.166 865,-964.166l2641.25,0c477.916,0 865,431.666 865,964.166Z"/>
            <path fill="#070605" opacity="0.25" d="M8293.75,2364.17l0,1292.5l-68.75,0l0,-1244.58c0,-119.166 -22.917,-232.5 -63.75,-335.416c-115.833,-290.417 -377.5,-493.75 -680,-493.75l-2475.42,0c-409.166,0 -743.75,373.333 -743.75,829.166l0,1244.58l-68.333,0l0,-1292.5c0,-471.667 346.25,-857.917 769.583,-857.917l2560.83,0c132.5,0 257.083,37.917 366.25,104.167c148.75,90.416 267.916,233.75 337.083,406.666c10.833,27.084 20.417,54.584 28.333,82.5c24.584,83.75 37.917,172.5 37.917,264.584Z"/>
            <g>
                <path fill="#fff" d="M3854.17,3724.58l0,432.917c-9.167,0 -17.5,-2.083 -25.834,-5.417c-30.416,-13.333 -52.083,-49.166 -52.083,-91.25l0,-240c0,-42.083 21.667,-77.916 52.083,-91.25c7.917,-3.333 16.667,-5 25.834,-5Z"/>
                <path fill="#26181c" opacity="0.48" d="M4262.5,3505l0,686.25c0,140 -91.25,253.333 -204.167,253.333c-112.916,0 -204.166,-113.333 -204.166,-253.333l0,-33.333c-9.167,0 -17.5,-2.084 -25.834,-5.417l0,-422.5c7.917,-3.333 16.667,-5.417 25.834,-5.417l0,-33.333c0,-140 91.25,-253.333 204.166,-253.333l0,-63.334l25.834,0c76.25,0 143.333,52.5 178.333,130.417Z"/>
                <path fill="#d81d1d" d="M4262.5,3691.25l0,500c0,140 -91.25,253.333 -204.167,253.333c-112.916,0 -204.166,-113.333 -204.166,-253.333l0,-500c0,-140 91.25,-253.333 204.166,-253.333c56.25,0 107.5,28.333 144.167,74.166c37.083,45.834 60,109.167 60,179.167Z"/>
                <path d="M3907.08,3724.58c0,-112.083 73.334,-203.333 163.75,-203.333"
                      style="fill:none;fill-rule:nonzero;stroke:#fff;stroke-opacity:0.43;stroke-width:37.12px;stroke-linecap:round;"/>
                <path d="M4209.17,4172.5c0,112.083 -73.334,203.333 -163.75,203.333"
                      style="fill:none;fill-rule:nonzero;stroke:#282526;stroke-opacity:0.43;stroke-width:37.12px;stroke-linecap:round;"/>
            </g>
            <g>
                <path fill="#fff" d="M8633.33,3724.58c42.917,0 77.917,35 77.917,77.917l0,277.5c0,42.917 -35,77.917 -77.917,77.917l0,-433.334Z"/>
                <path fill="#26181c" opacity="0.48" d="M8225,3505l0,686.25c0,140 91.25,253.333 204.167,253.333c112.916,0 204.166,-113.333 204.166,-253.333l0,-33.333c9.167,0 17.5,-2.084 25.834,-5.417l0,-422.5c-7.917,-3.333 -16.667,-5.417 -25.834,-5.417l0,-33.333c0,-140 -91.25,-253.333 -204.166,-253.333l0,-63.334l-25.834,0c-76.25,0 -143.333,52.5 -178.333,130.417Z"/>
                <path fill="#d81d1d" d="M8429.17,4444.17c-112.917,0 -204.167,-91.25 -204.167,-204.167l0,-597.917c0,-112.916 91.25,-204.166 204.167,-204.166c112.916,0 204.166,91.25 204.166,204.166l0,597.917c0,112.917 -91.25,204.167 -204.166,204.167Z"/>
                <path d="M8278.33,3724.58c0,-112.083 73.334,-203.333 163.75,-203.333"
                      style="fill:none;fill-rule:nonzero;stroke:#fff;stroke-opacity:0.43;stroke-width:37.12px;stroke-linecap:round;"/>
                <path d="M8580.42,4172.5c0,112.083 -73.334,203.333 -163.75,203.333"
                      style="fill:none;fill-rule:nonzero;stroke:#282526;stroke-opacity:0.43;stroke-width:37.12px;stroke-linecap:round;"/>
            </g>
        </g>
    </g>
    <defs>
        <linearGradient id="linear1" x1="0" y1="0" x2="1" y2="0" gradientUnits="userSpaceOnUse" gradientTransform="matrix(3.74879e-13,6122.24,-6122.24,3.74879e-13,8504.29,5238.71)">
            <stop offset="0" stop-color="#f91c27"/>
            <stop offset="1" stop-color="#a51c20"/>
        </linearGradient>
        <linearGradient id="linear2" x1="0" y1="0" x2="1" y2="0" gradientUnits="userSpaceOnUse" gradientTransform="matrix(3.74879e-13,6122.24,-6122.24,3.74879e-13,3995.71,5238.71)">
            <stop offset="0" stop-color="#f91c27"/>
            <stop offset="1" stop-color="#a51c20"/>
        </linearGradient>
    </defs>
</svg>
