<svg viewBox="0 0 1000 1000" version="1.1" xmlns="http://www.w3.org/2000/svg" stroke-linecap="round">
    <g>
        <path fill="#fffcf9" d="M797,643.1c-18.4,116.367 -99.267,223.333 -199.933,267.1c-3.2,1.4 -6.4,2.7 -9.634,3.967c-27.933,10.866 -57.266,16.866 -87.1,16.866c-28.8,0 -57.166,-5.6 -84.233,-15.766c-5.2,-1.967 -10.367,-4.1 -15.467,-6.367c-99.3,-44.567 -178.733,-150.6 -196.966,-265.8c-23.567,-149.033 51.133,-223.067 143.3,-224c1.8,-0.033 3.633,0 5.433,0.033c20.033,0.434 38.233,1.467 54.467,2.867c3.333,0.3 6.566,0.6 9.733,0.9c11.733,1.167 22.3,2.467 31.667,3.833c33.9,4.934 52.033,10.367 52.033,10.367c0,0 17.767,-5.333 51.033,-10.233c9.2,-1.367 19.6,-2.667 31.1,-3.834c7.1,-0.7 14.6,-1.366 22.534,-1.933c13.266,-0.967 27.7,-1.667 43.233,-2c1.5,-0.033 2.967,-0.033 4.433,-0.033c92.7,0.4 168.034,74.433 144.367,224.033Z"/>
        <path fill="#f30b00" d="M440.333,723c-0.766,63.733 -22.4,129.767 -40.033,185.867c-99.3,-44.534 -178.733,-150.567 -196.967,-265.767c-24.033,-151.967 54.1,-225.967 148.767,-223.967c20.033,0.434 38.233,1.467 54.467,2.867c19.8,132.033 34.7,225.7 33.766,301Z"/>
        <path fill="#7f7976" d="M796.667,643.1c-18.4,116.367 -99.267,223.333 -199.934,267.1c-3.2,1.4 -6.4,2.7 -9.633,3.967c-18,-57.334 -37.567,-122.6 -38.367,-185.8c-0.933,-77.7 13.534,-173.267 33.4,-305.267c7.1,-0.7 14.6,-1.367 22.534,-1.933c13.266,-0.967 27.7,-1.667 43.233,-2c1.5,-0.034 2.967,-0.034 4.433,-0.034c92.667,0.334 168,74.367 144.334,223.967Z"/>
        <path fill="#7f7976" d="M451.267,738.6c-0.734,59.867 -18.334,121.6 -35.5,176.667c-5.2,-1.967 -10.367,-4.1 -15.467,-6.367c-99.3,-44.567 -178.733,-150.6 -196.967,-265.8c-23.566,-149.033 51.134,-223.067 143.3,-224c1.8,-0.033 3.634,0 5.434,0.033c20.033,0.434 38.233,1.467 54.466,2.867c3.334,0.3 6.567,0.6 9.734,0.9c20.666,137.4 35.966,235.967 35,315.7Z"/>
        <path fill="url(#gradient1)" d="M559.667,723c0.766,63.733 22.4,129.767 40.033,185.867c99.3,-44.534 178.733,-150.567 196.967,-265.767c24.033,-151.967 -54.1,-225.967 -148.767,-223.967c-20.033,0.434 -38.233,1.467 -54.467,2.867c-19.8,132.033 -34.7,225.7 -33.766,301Z"/>
        <path fill="url(#gradient2)" d="M440.333,723c-0.766,63.733 -22.4,129.767 -40.033,185.867c-99.3,-44.534 -178.733,-150.567 -196.967,-265.767c-24.033,-151.967 54.1,-225.967 148.767,-223.967c20.033,0.434 38.233,1.467 54.467,2.867c19.8,132.033 34.7,225.7 33.766,301Z"/>
        <path fill="#ffcfb9" d="M551.033,426.9l-51.466,51.467l-51.6,-51.6c33.9,4.933 52.033,10.366 52.033,10.366c0,0 17.767,-5.333 51.033,-10.233Z"/>
    </g>
    <g>
        <path fill="#2d2623" opacity="0.61" d="M652.367,419.1c-9.534,20.2 -30.134,34.267 -53.867,34.267l-198.033,0c-23.7,0 -44.3,-14.067 -53.867,-34.267c1.8,-0.033 3.633,0 5.433,0.033c20.034,0.434 38.234,1.467 54.467,2.867c15.667,1.333 29.533,3 41.433,4.733c33.9,4.934 52.034,10.367 52.034,10.367c0,0 17.766,-5.333 51.033,-10.233c14.867,-2.2 32.8,-4.267 53.633,-5.767c13.267,-0.967 27.7,-1.667 43.234,-2l4.5,0Z"/>
        <path fill="#ffcfb9" d="M658,184.033l0,198.034c0,32.733 -26.767,59.5 -59.5,59.5l-198.033,0c-32.734,0 -59.5,-26.767 -59.5,-59.5l0,-198.034c0,-32.733 26.766,-59.5 59.5,-59.5l198.033,0c10.233,0 19.9,2.634 28.333,7.234c11.5,6.266 20.7,16.2 26.067,28.2c0.833,1.866 1.567,3.766 2.2,5.733c1.9,5.767 2.9,11.933 2.9,18.333Z"/>
        <path fill="#140f0c" opacity="0.27" d="M655.1,165.7c-72.1,10.567 -154,30.967 -192.567,54.3c-29.833,18.033 -71.6,26.267 -121.566,28.033l0,-58.566c0,-33.7 27.566,-61.3 61.3,-61.3l203.966,0c7.234,0 14.167,1.266 20.6,3.6c11.5,6.266 20.7,16.2 26.067,28.2c0.833,1.866 1.567,3.766 2.2,5.733Z"/>
        <path fill="#762e00" d="M652.9,160.3c-71.6,9.933 -155.2,30.3 -193.9,53.7c-28.967,17.5 -69.5,25.5 -118,27.233l0,-56.866c0,-32.734 26.767,-59.5 59.5,-59.5l198.033,0c24.167,0 45.067,14.6 54.367,35.433Z"/>
        <g>
            <circle fill="#fffcf9" cx="579.033" cy="293.933" r="28"/>
            <circle fill="#562408" cx="582.033" cy="290.267" r="8.5"/>
        </g>
        <g>
            <circle fill="#fffcf9" cx="424.933" cy="293.933" r="28"/>
            <circle fill="#562408" cx="427.9" cy="290.267" r="8.5"/>
        </g>
        <path fill="#1c1917" opacity="0.39" d="M448.433,248.333l-60.133,3.767c-2.2,0.133 -3.867,2.033 -3.733,4.233l0.233,3.9c0.133,2.2 2.033,3.867 4.233,3.734l60.134,-3.767c2.2,-0.133 3.866,-2.033 3.733,-4.233l-0.233,-3.9c-0.134,-2.167 -2.034,-3.867 -4.234,-3.734Z"/>
        <path fill="#762e00" d="M443.7,243.633l-60.133,3.767c-2.2,0.133 -3.867,2.033 -3.734,4.233l0.234,3.9c0.133,2.2 2.033,3.867 4.233,3.734l60.133,-3.767c2.2,-0.133 3.867,-2.033 3.734,-4.233l-0.234,-3.9c-0.133,-2.167 -2.033,-3.867 -4.233,-3.734Z"/>
        <path fill="#1c1917" opacity="0.39" d="M557.4,233.2l60.233,0.4c2.2,0 4,1.833 3.967,4.033l-0.033,3.9c0,2.2 -1.834,4 -4.034,3.967l-60.233,-0.4c-2.2,0 -4,-1.833 -3.967,-4.033l0.034,-3.9c0.033,-2.2 1.833,-3.967 4.033,-3.967Z"/>
        <path fill="#762e00" d="M551.867,228.1l60.233,0.4c2.2,0 4,1.833 3.967,4.033l-0.034,3.9c0,2.2 -1.833,4 -4.033,3.967l-60.233,-0.4c-2.2,0 -4,-1.833 -3.967,-4.033l0.033,-3.9c0.034,-2.2 1.834,-3.967 4.034,-3.967Z"/>
        <path fill="none" stroke="#995f5b" stroke-width="5.7" d="M453.433,390.6c0,0 67.734,11.233 106.2,-17.3"/>
        <g>
            <path fill="#ad2121" d="M674.333,183.467l0,109.066l-16.333,0l0,-99.566c0,-9.534 -1.833,-18.6 -5.1,-26.834c-9.267,-23.233 -30.2,-39.5 -54.4,-39.5l-198.033,0c-32.734,0 -59.5,29.867 -59.5,66.334l0,99.566l-16.334,0l0,-109.066c0,-42.6 30.967,-77.134 69.2,-77.134l211.3,0c38.234,0 69.2,34.534 69.2,77.134Z"/>
            <path fill="#070605" opacity="0.24" d="M663.5,189.133l0,103.4l-5.5,0l0,-99.566c0,-9.534 -1.833,-18.6 -5.1,-26.834c-9.267,-23.233 -30.2,-39.5 -54.4,-39.5l-198.033,0c-32.734,0 -59.5,29.867 -59.5,66.334l0,99.566l-5.467,0l0,-103.4c0,-37.733 27.7,-68.633 61.567,-68.633l204.866,0c10.6,0 20.567,3.033 29.3,8.333c11.9,7.234 21.434,18.7 26.967,32.534c0.867,2.166 1.633,4.366 2.267,6.6c1.966,6.7 3.033,13.8 3.033,21.166Z"/>
            <g>
                <path fill="#fff" d="M308.333,297.967l0,34.633c-0.733,0 -1.4,-0.167 -2.066,-0.433c-2.434,-1.067 -4.167,-3.934 -4.167,-7.3l0,-19.2c0,-3.367 1.733,-6.234 4.167,-7.3c0.633,-0.267 1.333,-0.4 2.066,-0.4Z"/>
                <path fill="#26181c" opacity="0.48" d="M341,280.4l0,54.9c0,11.2 -7.3,20.267 -16.333,20.267c-9.034,0 -16.334,-9.067 -16.334,-20.267l0,-2.667c-0.733,0 -1.4,-0.166 -2.066,-0.433l0,-33.8c0.633,-0.267 1.333,-0.433 2.066,-0.433l0,-2.667c0,-11.2 7.3,-20.267 16.334,-20.267l0,-5.066l2.066,0c6.1,0 11.467,4.2 14.267,10.433Z"/>
                <path fill="#d81d1d" d="M341,295.3l0,40c0,11.2 -7.3,20.267 -16.333,20.267c-9.034,0 -16.334,-9.067 -16.334,-20.267l0,-40c0,-11.2 7.3,-20.267 16.334,-20.267c4.5,0 8.6,2.267 11.533,5.934c2.967,3.666 4.8,8.733 4.8,14.333Z"/>
                <path fill="none" stroke="#fff" stroke-opacity="0.43" stroke-width="3" d="M312.567,297.967c0,-8.967 5.866,-16.267 13.1,-16.267"/>
                <path fill="none" stroke="#282526" stroke-opacity="0.43" stroke-width="3" d="M336.733,333.8c0,8.967 -5.866,16.267 -13.1,16.267"/>
            </g>
            <g>
                <path fill="#fff" d="M690.667,297.967c3.433,0 6.233,2.8 6.233,6.233l0,22.2c0,3.433 -2.8,6.233 -6.233,6.233l0,-34.666Z"/>
                <path fill="#26181c" opacity="0.48" d="M658,280.4l0,54.9c0,11.2 7.3,20.267 16.333,20.267c9.034,0 16.334,-9.067 16.334,-20.267l0,-2.667c0.733,0 1.4,-0.166 2.066,-0.433l0,-33.8c-0.633,-0.267 -1.333,-0.433 -2.066,-0.433l0,-2.667c0,-11.2 -7.3,-20.267 -16.334,-20.267l0,-5.066l-2.066,0c-6.1,0 -11.467,4.2 -14.267,10.433Z"/>
                <path fill="#d81d1d" d="M674.333,355.533c-9.033,0 -16.333,-7.3 -16.333,-16.333l0,-47.833c0,-9.034 7.3,-16.334 16.333,-16.334c9.034,0 16.334,7.3 16.334,16.334l0,47.833c0,9.033 -7.3,16.333 -16.334,16.333Z"/>
                <path fill="none" stroke="#fff" stroke-opacity="0.43" stroke-width="3" d="M662.267,297.967c0,-8.967 5.866,-16.267 13.1,-16.267"/>
                <path fill="none" stroke="#282526" stroke-opacity="0.43" stroke-width="3" d="M686.433,333.8c0,8.967 -5.866,16.267 -13.1,16.267"/>
            </g>
        </g>
    </g>
    <defs>
        <linearGradient id="gradient1" x1="0" y1="0" x2="1" y2="0" gradientUnits="userSpaceOnUse" gradientTransform="matrix(2.99903e-14,489.779,-489.779,2.99903e-14,680.343,419.097)">
            <stop offset="0" stop-color="#f91c27"/>
            <stop offset="1" stop-color="#a51c20"/>
        </linearGradient>
        <linearGradient id="gradient2" x1="0" y1="0" x2="1" y2="0" gradientUnits="userSpaceOnUse" gradientTransform="matrix(2.99903e-14,489.779,-489.779,2.99903e-14,319.657,419.097)">
            <stop offset="0" stop-color="#f91c27"/>
            <stop offset="1" stop-color="#a51c20"/>
        </linearGradient>
    </defs>
</svg>
